<svg width="32" height="32" viewBox="0 0 32 32" fill="none" xmlns="http://www.w3.org/2000/svg">
<path d="M9.33366 6.66634V2.66634C9.33366 1.92997 9.93062 1.33301 10.667 1.33301H21.3337C22.0701 1.33301 22.667 1.92997 22.667 2.66634V6.66634H28.0003C28.7367 6.66634 29.3337 7.2633 29.3337 7.99967V26.6663C29.3337 27.4027 28.7367 27.9997 28.0003 27.9997H4.00033C3.26395 27.9997 2.66699 27.4027 2.66699 26.6663V7.99967C2.66699 7.2633 3.26395 6.66634 4.00033 6.66634H9.33366ZM5.33366 21.333V25.333H26.667V21.333H5.33366ZM5.33366 18.6663H26.667V9.33301H5.33366V18.6663ZM12.0003 3.99967V6.66634H20.0003V3.99967H12.0003ZM14.667 14.6663H17.3337V17.333H14.667V14.6663Z" fill="white"/>
</svg>
