<svg width="32" height="32" viewBox="0 0 32 32" fill="none" xmlns="http://www.w3.org/2000/svg">
<path d="M5.33366 6.66667V25.3333H26.667V9.33333H15.4483L12.7817 6.66667H5.33366ZM16.5523 6.66667H28.0003C28.3539 6.66667 28.6931 6.80714 28.9431 7.05719C29.1932 7.30724 29.3337 7.64638 29.3337 8V26.6667C29.3337 27.0203 29.1932 27.3594 28.9431 27.6095C28.6931 27.8595 28.3539 28 28.0003 28H4.00033C3.6467 28 3.30756 27.8595 3.05752 27.6095C2.80747 27.3594 2.66699 27.0203 2.66699 26.6667V5.33333C2.66699 4.97971 2.80747 4.64057 3.05752 4.39052C3.30756 4.14048 3.6467 4 4.00033 4H13.8857L16.5523 6.66667Z" fill="white"/>
</svg>
