<svg width="32" height="32" viewBox="0 0 32 32" fill="none" xmlns="http://www.w3.org/2000/svg">
<path d="M14.9945 19.9997H6.33847L3.6718 26.6663H0.799805L9.33314 5.33301H11.9998L20.5331 26.6663H17.6611L14.9945 19.9997ZM13.9278 17.333L10.6665 9.17967L7.40514 17.333H13.9278V17.333ZM27.9998 16.713V15.9997H30.6665V26.6663H27.9998V25.953C27.189 26.4206 26.2694 26.6667 25.3334 26.6663C24.3974 26.666 23.478 26.4194 22.6675 25.9512C21.857 25.483 21.184 24.8098 20.7161 23.9992C20.2482 23.1885 20.0019 22.269 20.0019 21.333C20.0019 20.397 20.2482 19.4775 20.7161 18.6669C21.184 17.8562 21.857 17.183 22.6675 16.7148C23.478 16.2466 24.3974 16 25.3334 15.9997C26.2694 15.9994 27.189 16.2454 27.9998 16.713V16.713ZM25.3331 23.9997C26.0404 23.9997 26.7187 23.7187 27.2188 23.2186C27.7189 22.7185 27.9998 22.0403 27.9998 21.333C27.9998 20.6258 27.7189 19.9475 27.2188 19.4474C26.7187 18.9473 26.0404 18.6663 25.3331 18.6663C24.6259 18.6663 23.9476 18.9473 23.4475 19.4474C22.9474 19.9475 22.6665 20.6258 22.6665 21.333C22.6665 22.0403 22.9474 22.7185 23.4475 23.2186C23.9476 23.7187 24.6259 23.9997 25.3331 23.9997V23.9997Z" fill="white"/>
</svg>
