<svg width="33" height="32" viewBox="0 0 33 32" fill="none" xmlns="http://www.w3.org/2000/svg">
<path d="M27.1663 29.3337H24.4997V28.0003C24.4997 26.9395 24.0782 25.922 23.3281 25.1719C22.578 24.4218 21.5605 24.0003 20.4997 24.0003H12.4997C11.4388 24.0003 10.4214 24.4218 9.67125 25.1719C8.9211 25.922 8.49967 26.9395 8.49967 28.0003V29.3337H5.83301V28.0003C5.83301 26.2322 6.53539 24.5365 7.78563 23.2863C9.03587 22.036 10.7316 21.3337 12.4997 21.3337H20.4997C22.2678 21.3337 23.9635 22.036 25.2137 23.2863C26.464 24.5365 27.1663 26.2322 27.1663 28.0003V29.3337ZM16.4997 18.667C15.4491 18.667 14.4088 18.4601 13.4382 18.058C12.4676 17.656 11.5857 17.0667 10.8428 16.3238C10.0999 15.581 9.51067 14.6991 9.10864 13.7285C8.7066 12.7579 8.49967 11.7176 8.49967 10.667C8.49967 9.61642 8.7066 8.57613 9.10864 7.60553C9.51067 6.63492 10.0999 5.75301 10.8428 5.01014C11.5857 4.26727 12.4676 3.67799 13.4382 3.27596C14.4088 2.87392 15.4491 2.66699 16.4997 2.66699C18.6214 2.66699 20.6562 3.50985 22.1565 5.01014C23.6568 6.51043 24.4997 8.54526 24.4997 10.667C24.4997 12.7887 23.6568 14.8236 22.1565 16.3238C20.6562 17.8241 18.6214 18.667 16.4997 18.667ZM16.4997 16.0003C17.9142 16.0003 19.2707 15.4384 20.2709 14.4382C21.2711 13.438 21.833 12.0815 21.833 10.667C21.833 9.25251 21.2711 7.89595 20.2709 6.89576C19.2707 5.89556 17.9142 5.33366 16.4997 5.33366C15.0852 5.33366 13.7286 5.89556 12.7284 6.89576C11.7282 7.89595 11.1663 9.25251 11.1663 10.667C11.1663 12.0815 11.7282 13.438 12.7284 14.4382C13.7286 15.4384 15.0852 16.0003 16.4997 16.0003Z" fill="white"/>
</svg>
